<svg width="1170" height="1170" viewBox="0 0 1170 1170" fill="none" xmlns="http://www.w3.org/2000/svg">
<rect x="22.5" y="22.5" width="1125" height="1125" rx="562.5" stroke="white" stroke-width="45"/>
<path d="M508.522 288.844C534.77 279.315 561.474 273.308 589.169 274.063C651.913 275.775 704.827 300.143 747.334 347.254C768.603 370.827 783.602 398.131 793.096 428.588C794.503 433.103 796.086 435.771 798.327 437.443C800.584 439.127 803.663 439.918 808.353 440.307C885.669 446.714 948.401 498.034 963.409 575.526C975.103 635.904 958.062 688.015 914.825 730.648C889.124 755.991 857.578 770.002 822.156 774.97C812.773 776.286 803.405 776.66 794.004 776.652C750.817 776.618 707.631 776.639 664.443 776.646C660.724 776.646 658.019 776.648 656.008 776.872C653.99 777.097 652.889 777.528 652.209 778.206C651.53 778.884 651.096 779.982 650.866 781.998C650.637 784.007 650.628 786.71 650.618 790.427C650.601 796.766 650.661 803.149 650.593 809.509C650.555 813.041 649.907 815.735 648.163 817.519C646.411 819.31 643.776 819.959 640.349 819.973C632.248 820.006 624.148 819.997 616.05 819.977C612.497 819.967 609.775 819.328 607.977 817.516C606.18 815.705 605.535 812.956 605.53 809.328C605.496 782.883 605.528 756.435 605.526 729.992C605.524 694.003 605.71 658.028 605.363 622.056C605.276 612.969 608.118 606.33 614.606 600.045C636.714 578.631 658.313 556.686 680.133 534.933C688.044 527.045 695.96 519.157 703.915 511.311C706.835 508.431 709.656 506.792 712.592 506.841C715.537 506.89 718.273 508.629 721.04 511.701C726.298 517.539 732 522.888 737.705 528.335C741.412 531.874 743.598 534.822 743.657 537.975C743.716 541.135 741.631 544.112 738.03 547.688C712.625 572.926 687.195 598.139 661.782 623.367C659.94 625.196 658.116 626.967 656.437 628.868C652.645 633.161 650.467 638.042 650.487 643.884C650.577 669.924 650.576 695.881 650.67 721.916C650.679 724.341 651.096 725.74 651.862 726.606C652.623 727.467 653.915 728.012 656.216 728.251C659.586 728.601 662.956 728.868 666.305 728.874C702.248 728.934 738.187 729.033 774.125 728.901C790.023 728.843 805.908 728.696 821.68 727.127C840.287 725.276 856.945 717.829 871.906 706.52C896.829 687.68 914 663.342 919.979 632.142C927.507 592.866 917.257 557.967 891.559 528.03C869.975 502.887 842.254 489.889 809.417 487.598C796.789 486.716 784.417 488.069 771.954 489.973C768.486 490.502 765.756 490.496 763.717 489.188C761.65 487.863 760.576 485.392 759.873 481.812C757.144 467.926 754.418 454.136 749.66 440.9C730.86 388.602 697.112 350.946 645.33 331.388C620.369 321.959 594.328 319.949 567.777 322.044C497.241 327.61 434.731 382.627 414.935 453.482C412.464 462.326 411.148 471.378 409.316 480.488C408.497 484.564 407.449 487.425 405.282 488.938C403.103 490.459 400.099 490.407 396.042 489.638C370.506 484.794 345.412 485.605 321.432 496.129C281.65 513.587 257.071 544.554 248.535 587.371C235.817 651.169 279.895 715.214 342.79 726.534C351.708 728.139 360.697 728.849 369.713 728.869C415.455 728.971 461.197 728.893 506.942 728.861C509.909 728.859 512.109 728.798 513.769 728.534C515.421 728.271 516.393 727.828 517.028 727.176C517.667 726.52 518.102 725.51 518.359 723.806C518.617 722.098 518.679 719.84 518.686 716.805C518.736 693.253 518.742 669.695 518.889 646.139C518.933 639.021 516.297 633.338 511.357 628.338C485.277 601.937 459.271 575.458 433.248 549.002C430.924 546.639 429.123 544.734 427.905 543.068C426.686 541.4 425.96 539.852 425.956 538.209C425.953 536.563 426.675 535.022 427.894 533.366C429.11 531.715 430.911 529.831 433.24 527.499C439.118 521.613 445.097 515.833 451.094 510.085C453.53 507.75 455.837 506.383 458.282 506.398C460.732 506.414 463.008 507.815 465.388 510.219C496.526 541.665 527.645 573.196 558.78 604.643C562.652 608.553 563.68 613.284 563.679 618.379C563.664 668.378 563.696 718.376 563.715 768.376C563.72 781.957 563.752 795.545 563.725 809.13C563.717 812.876 563.104 815.685 561.285 817.517C559.464 819.35 556.672 819.964 552.966 819.974C544.729 819.996 536.481 820.03 528.234 819.95C525.16 819.92 522.703 819.184 521.019 817.479C519.337 815.778 518.606 813.293 518.571 810.173C518.485 802.361 518.539 794.547 518.578 786.747C518.599 782.503 517.999 780.124 516.647 778.737C515.299 777.354 512.95 776.702 508.703 776.664C502.313 776.607 495.929 776.581 489.553 776.701C472.787 777.018 456.03 776.97 439.27 776.759C427.418 776.61 415.562 776.648 403.697 776.674C391.835 776.7 379.964 776.713 368.094 776.513C328.94 775.851 293.255 764.457 262.752 738.684C230.822 711.704 210.771 677.393 204.947 635.453C197.192 579.605 212.592 530.668 251.331 490.18C276.635 463.733 307.972 448.363 343.847 442.77C349.334 441.914 354.85 441.241 360.446 441.039C364.776 440.883 368.231 439.657 370.941 437.491C373.658 435.32 375.704 432.142 377.101 427.953C380.586 417.497 384.877 407.38 389.711 397.506C415.175 345.492 454.544 309.149 508.512 288.848L508.522 288.844Z" fill="white" stroke="white" stroke-width="2"/>
<path d="M624.002 505.098C625.076 520.32 620.442 532.765 608.974 542.258C585.957 561.311 551.094 549.363 544.747 519.931C541.178 503.378 546.788 483.08 562.922 474.158C580.734 464.308 599.878 466.565 613.426 480.545C619.868 487.192 622.265 495.829 624.002 505.098Z" fill="white"/>
</svg>
