<svg width="1170" height="1170" viewBox="0 0 1170 1170" fill="none" xmlns="http://www.w3.org/2000/svg">
<rect x="22.5" y="22.5" width="1125" height="1125" rx="562.5" fill="black"/>
<rect x="22.5" y="22.5" width="1125" height="1125" rx="562.5" stroke="white" stroke-width="45"/>
<path d="M508.863 289.783C535.035 280.282 561.61 274.313 589.142 275.063C651.612 276.767 704.267 301.014 746.592 347.924C767.757 371.382 782.687 398.556 792.141 428.886C795.005 438.072 798.803 440.519 808.27 441.303C885.178 447.677 947.512 498.701 962.428 575.717C974.055 635.757 957.129 687.531 914.123 729.937C888.594 755.109 857.255 769.038 822.018 773.98C812.698 775.287 803.381 775.66 794.005 775.652C750.818 775.618 707.631 775.638 664.443 775.645C649.663 775.648 649.658 775.656 649.618 790.424C649.601 796.782 649.661 803.141 649.593 809.499C649.519 816.416 647.029 818.946 640.345 818.973C632.247 819.006 624.15 818.998 616.052 818.977C609.097 818.959 606.539 816.436 606.53 809.326C606.496 782.882 606.528 756.437 606.526 729.992C606.523 694.01 606.71 658.025 606.363 622.046C606.278 613.238 609.006 606.861 615.302 600.763C637.416 579.343 659.028 557.386 680.839 535.641C688.751 527.753 696.664 519.867 704.617 512.023C710.324 506.395 714.905 506.383 720.297 512.37C725.586 518.242 731.32 523.622 737.014 529.058C744.441 536.149 744.532 539.82 737.326 546.979C711.921 572.217 686.492 597.429 661.078 622.658C659.248 624.474 657.394 626.274 655.687 628.206C651.761 632.652 649.466 637.762 649.487 643.888C649.577 669.898 649.576 695.909 649.67 721.92C649.688 726.913 651.353 728.751 656.112 729.245C659.496 729.597 662.905 729.868 666.303 729.874C702.244 729.933 738.187 730.033 774.128 729.902C790.024 729.843 805.953 729.697 821.779 728.122C840.601 726.249 857.429 718.716 872.509 707.317C897.597 688.353 914.928 663.81 920.961 632.329C928.549 592.738 918.203 557.534 892.317 527.379C870.548 502.018 842.572 488.908 809.487 486.6C796.747 485.711 784.288 487.077 771.803 488.984C764.89 490.04 762.242 488.683 760.854 481.62C758.128 467.745 755.389 453.88 750.601 440.562C731.713 388.022 697.771 350.127 645.683 330.453C620.546 320.958 594.349 318.944 567.699 321.047C496.704 326.649 433.87 381.994 413.972 453.213C411.488 462.103 410.153 471.252 408.336 480.291C406.691 488.469 404.346 490.195 396.229 488.655C370.553 483.784 345.243 484.588 321.03 495.213C280.944 512.805 256.153 544.044 247.555 587.176C234.728 651.522 279.167 716.099 342.613 727.518C351.595 729.135 360.644 729.849 369.711 729.869C415.455 729.971 461.199 729.893 506.943 729.862C518.784 729.853 519.659 728.919 519.685 716.806C519.736 693.252 519.742 669.698 519.889 646.145C519.935 638.731 517.172 632.8 512.069 627.635C485.989 601.235 459.985 574.757 433.961 548.3C424.639 538.824 424.607 537.56 433.948 528.206C439.818 522.328 445.79 516.553 451.785 510.807C456.542 506.248 460.039 506.239 464.677 510.922C495.826 542.379 526.923 573.888 558.07 605.346C561.683 608.995 562.68 613.422 562.678 618.378C562.664 668.378 562.695 718.377 562.714 768.377C562.72 781.96 562.752 795.544 562.724 809.128C562.709 816.511 560.263 818.954 552.963 818.974C544.723 818.996 536.483 819.029 528.244 818.95C522.37 818.893 519.637 816.14 519.571 810.162C519.485 802.36 519.539 794.556 519.578 786.753C519.621 778.227 517.251 775.74 508.712 775.664C502.32 775.607 495.925 775.581 489.534 775.702C472.783 776.019 456.036 775.97 439.282 775.759C415.561 775.46 391.829 775.913 368.11 775.513C329.153 774.855 293.7 763.525 263.397 737.92C231.643 711.089 211.726 676.995 205.938 635.316C198.224 579.763 213.53 531.133 252.054 490.871C277.195 464.595 308.325 449.32 344 443.758C349.468 442.905 354.941 442.238 360.482 442.038C369.497 441.713 375.168 436.912 378.049 428.269C381.518 417.863 385.791 407.788 390.609 397.946C415.964 346.155 455.14 309.993 508.863 289.783Z" fill="white"/>
<path d="M508.522 288.843L508.511 288.848C454.543 309.149 415.175 345.492 389.711 397.506C384.877 407.38 380.586 417.497 377.101 427.953C375.704 432.142 373.659 435.32 370.942 437.492C368.231 439.657 364.776 440.883 360.446 441.039C354.85 441.241 349.334 441.914 343.846 442.77C307.971 448.363 276.636 463.734 251.331 490.18C212.592 530.668 197.192 579.605 204.947 635.453C210.771 677.393 230.822 711.704 262.752 738.684C293.255 764.458 328.94 775.851 368.094 776.513C379.964 776.713 391.835 776.7 403.697 776.674L405.95 776.669C417.063 776.644 428.168 776.619 439.269 776.759C456.03 776.97 472.787 777.019 489.553 776.702C495.929 776.581 502.313 776.607 508.703 776.664C512.95 776.702 515.299 777.355 516.647 778.738C517.999 780.124 518.599 782.503 518.578 786.748C518.574 787.515 518.57 788.282 518.566 789.05C518.53 796.085 518.493 803.13 518.571 810.173C518.606 813.293 519.337 815.778 521.019 817.479C522.703 819.184 525.16 819.92 528.234 819.95C535.707 820.022 543.181 820.001 550.647 819.98C551.42 819.978 552.193 819.976 552.965 819.974C556.672 819.964 559.463 819.351 561.285 817.517C563.104 815.685 563.717 812.876 563.724 809.13C563.743 799.771 563.734 790.41 563.724 781.052C563.72 776.826 563.716 772.601 563.714 768.376C563.71 757.914 563.706 747.453 563.701 736.991C563.684 697.453 563.667 657.916 563.678 618.379C563.68 613.284 562.652 608.552 558.781 604.642C543.487 589.195 528.197 573.728 512.906 558.26C497.068 542.239 481.231 526.218 465.388 510.219C463.008 507.815 460.732 506.415 458.282 506.399C455.837 506.383 453.53 507.75 451.093 510.085C445.096 515.833 439.118 521.613 433.24 527.499C430.911 529.832 429.109 531.715 427.893 533.366C426.674 535.022 425.953 536.564 425.956 538.209C425.96 539.853 426.686 541.4 427.905 543.069C429.123 544.734 430.924 546.639 433.248 549.002C438.701 554.545 444.153 560.09 449.605 565.634C470.173 586.551 490.742 607.469 511.358 628.338C516.297 633.338 518.933 639.021 518.889 646.139C518.778 663.999 518.747 681.861 518.717 699.72C518.707 705.415 518.698 711.11 518.685 716.804C518.679 719.84 518.618 722.098 518.36 723.806C518.102 725.51 517.667 726.519 517.028 727.176C516.393 727.828 515.421 728.271 513.769 728.534C512.11 728.798 509.91 728.859 506.942 728.862C497.599 728.868 488.256 728.876 478.913 728.885C442.512 728.918 406.112 728.95 369.713 728.869C360.697 728.849 351.708 728.139 342.79 726.534C279.895 715.214 235.818 651.169 248.536 587.372C257.071 544.554 281.65 513.587 321.432 496.129C345.412 485.606 370.507 484.793 396.042 489.637C400.099 490.407 403.103 490.458 405.282 488.937C407.448 487.425 408.496 484.564 409.316 480.488C409.861 477.78 410.36 475.076 410.857 472.382C412.033 466.014 413.199 459.697 414.935 453.482C434.731 382.627 497.241 327.61 567.777 322.044C594.328 319.949 620.369 321.96 645.33 331.388C697.112 350.947 730.859 388.602 749.66 440.9C754.418 454.136 757.144 467.926 759.873 481.812C760.576 485.392 761.65 487.863 763.717 489.188C765.756 490.496 768.486 490.502 771.954 489.972C784.417 488.069 796.789 486.716 809.417 487.597C842.254 489.889 869.975 502.886 891.559 528.03C917.257 557.967 927.507 592.865 919.979 632.141C914 663.342 896.829 687.68 871.906 706.519C856.945 717.828 840.287 725.276 821.68 727.127C805.908 728.696 790.023 728.843 774.125 728.902C743.524 729.014 712.922 728.958 682.317 728.902C676.98 728.892 671.642 728.882 666.304 728.874C662.956 728.868 659.585 728.601 656.215 728.251C653.915 728.012 652.623 727.467 651.862 726.607C651.095 725.74 650.679 724.341 650.67 721.916C650.622 708.611 650.599 695.326 650.576 682.039C650.553 669.328 650.531 656.616 650.487 643.884C650.467 638.042 652.645 633.161 656.437 628.868C657.899 627.212 659.472 625.655 661.071 624.072C661.308 623.838 661.545 623.603 661.783 623.367C671.793 613.43 681.805 603.495 691.818 593.56C707.225 578.273 722.633 562.985 738.031 547.688C741.631 544.112 743.716 541.135 743.657 537.974C743.599 534.822 741.412 531.874 737.705 528.335C737.17 527.824 736.635 527.314 736.1 526.805C730.935 521.881 725.805 516.991 721.04 511.701C718.273 508.629 715.537 506.89 712.592 506.841C709.655 506.792 706.835 508.431 703.915 511.311C695.959 519.157 688.044 527.045 680.133 534.933C673.944 541.103 667.772 547.289 661.602 553.473C646.019 569.093 630.443 584.705 614.606 600.045C608.117 606.33 605.276 612.969 605.363 622.056C605.619 648.602 605.584 675.149 605.55 701.702C605.538 711.131 605.525 720.561 605.526 729.992C605.527 738.992 605.523 747.993 605.52 756.994C605.514 774.438 605.507 791.883 605.53 809.328C605.534 812.956 606.18 815.705 607.977 817.515C609.775 819.328 612.497 819.968 616.05 819.977C624.148 819.998 632.248 820.006 640.349 819.973C643.776 819.959 646.411 819.31 648.163 817.519C649.907 815.735 650.555 813.042 650.593 809.509C650.636 805.535 650.628 801.551 650.621 797.575C650.616 795.188 650.612 792.804 650.618 790.427C650.628 786.71 650.637 784.007 650.867 781.998C651.097 779.982 651.53 778.883 652.209 778.206C652.889 777.528 653.99 777.098 656.008 776.873C658.019 776.648 660.724 776.646 664.444 776.645C673.027 776.644 681.611 776.642 690.194 776.64C724.798 776.633 759.401 776.625 794.004 776.652C803.405 776.66 812.773 776.286 822.157 774.97C857.578 770.002 889.124 755.991 914.825 730.649C958.062 688.015 975.103 635.904 963.409 575.527C948.401 498.034 885.669 446.714 808.352 440.307C803.662 439.918 800.584 439.127 798.327 437.444C796.086 435.772 794.504 433.104 793.096 428.588C783.602 398.131 768.603 370.827 747.334 347.254C704.828 300.142 651.914 275.775 589.169 274.064C561.474 273.309 534.769 279.315 508.522 288.843Z" stroke="white" stroke-opacity="0.98" stroke-width="2"/>
<path d="M624.002 505.098C625.076 520.32 620.442 532.764 608.974 542.258C585.957 561.311 551.094 549.362 544.747 519.931C541.178 503.378 546.788 483.08 562.922 474.158C580.734 464.308 599.878 466.565 613.426 480.545C619.868 487.192 622.265 495.829 624.002 505.098Z" fill="white" fill-opacity="0.98"/>
</svg>
