<?xml version="1.0" encoding="utf-8"?>
<!-- Generator: Adobe Illustrator 27.1.1, SVG Export Plug-In . SVG Version: 6.00 Build 0)  -->
<svg version="1.1" id="Layer_1" xmlns="http://www.w3.org/2000/svg" xmlns:xlink="http://www.w3.org/1999/xlink" x="0px" y="0px"
	 viewBox="0 0 512 512" style="enable-background:new 0 0 512 512;" xml:space="preserve">
<style type="text/css">
	.st0{fill:#404EED;}
</style>
<g>
	<g>
		<path class="st0" d="M433.39,95.23c-33.32-14.99-68.31-26.66-104.96-33.32c-5,8.33-10,18.33-13.33,26.66c-39.99-5-78.3-5-116.62,0
			c-5-8.33-10-18.33-14.99-26.66c-36.65,6.66-71.64,16.66-104.96,33.32C11.87,193.52-6.45,290.15,1.88,385.12
			c44.98,31.66,86.64,51.65,129.95,64.98c10-13.33,19.99-28.32,28.32-44.98c-14.99-5-29.99-13.33-43.32-21.66
			c3.33-3.33,6.66-5,10-8.33c84.97,38.32,174.94,38.32,258.24,0c3.33,3.33,6.66,5,10,8.33c-13.33,8.33-28.32,14.99-43.32,21.66
			c8.33,14.99,16.66,29.99,28.32,44.98c41.65-13.33,84.97-33.32,129.95-64.98C520.02,275.16,491.7,178.53,433.39,95.23z
			 M171.81,325.14c-24.99,0-46.65-23.32-46.65-51.65s19.99-51.65,46.65-51.65c24.99,0,46.65,23.32,46.65,51.65
			C216.8,303.48,196.81,325.14,171.81,325.14z M340.09,325.14c-24.99,0-46.65-23.32-46.65-51.65s19.99-51.65,46.65-51.65
			c24.99,0,46.65,23.32,46.65,51.65C386.74,303.48,366.74,325.14,340.09,325.14z"/>
	</g>
</g>
</svg>
