<?xml version="1.0" encoding="utf-8"?>
<!-- Generator: Adobe Illustrator 28.0.0, SVG Export Plug-In . SVG Version: 6.00 Build 0)  -->
<svg version="1.1" id="Logos" xmlns="http://www.w3.org/2000/svg" xmlns:xlink="http://www.w3.org/1999/xlink" x="0px" y="0px"
	 viewBox="0 0 253.1 53.1" style="enable-background:new 0 0 253.1 53.1;" xml:space="preserve">
<g>
	<g>
		<path d="M63,12.2h5.3v11.4h12.2V12.2h5.4v28h-5.4V28.4H68.3v11.8H63C63,40.2,63,12.2,63,12.2z"/>
		<path d="M89.3,34.8c0-4.2,3-5.6,6.6-6.4l6.1-1.4v-0.5c0-2-1.3-3.3-3.4-3.3s-3.4,1.2-3.8,3.1l-4.6-0.5c0.7-3.8,3.9-6.3,8.5-6.3
			c5.1,0,8.4,3.2,8.4,7.9v8.2c0,0.5,0.2,0.7,0.5,0.7h1.1v4.1h-3.1c-2,0-2.8-0.6-2.8-2.2c0-0.5,0.1-1,0.3-1.8l-0.4-0.2
			c-1.4,3.1-3.6,4.5-6.6,4.5C91.9,40.5,89.3,38.2,89.3,34.8z M97.4,36.8c2.6,0,4.5-1.9,4.5-5v-1.6l-4.4,1c-2.2,0.5-3.1,1.3-3.1,3
			S95.6,36.8,97.4,36.8z"/>
		<path d="M110.6,34.7l4.9-1c0.5,2.2,2.2,3.2,4.5,3.2s3.6-0.9,3.6-2.5s-1.5-1.9-4.4-2.4c-3.6-0.6-8.3-1.2-8.3-6.3
			c0-3.8,3.2-6.4,8.5-6.4c4.7,0,8.3,2,9.1,5.9l-4.9,0.8c-0.4-2-2.1-3-4.2-3c-2.4,0-3.5,1-3.5,2.4c0,1.6,1.6,1.9,4.4,2.4
			c3.6,0.6,8.3,1.2,8.3,6.3c0,4-3.2,6.6-8.6,6.6C115.1,40.7,111.5,38.7,110.6,34.7z"/>
		<path d="M136.9,40.2h-5.2V11.4h5.2v9c0,1-0.2,2-0.5,3.5l0.5,0.2c1.2-3,3.1-4.7,6.6-4.7c4.4,0,6.8,2.8,6.8,7.6v13.3h-5.2V27.1
			c0-2.3-1.2-3.6-3.5-3.6c-2.6,0-4.7,2-4.7,5.5L136.9,40.2L136.9,40.2z"/>
		<path d="M161,35c0,0.8,0.3,1,0.9,1h2.3v4.1h-4.7c-2.4,0-3.6-1.3-3.6-3.8V24h-2.9v-4.1h8.1V35z M155.1,14.4c0-1.8,1.4-3.2,3.2-3.2
			s3.2,1.4,3.2,3.2s-1.4,3.2-3.2,3.2S155.1,16.2,155.1,14.4z"/>
		<path d="M165.9,26.2c0-8.4,5.5-14.5,13.5-14.5c6.7,0,11.3,3.9,12.6,9.1l-5.3,1.3c-1-3.7-3.4-5.8-7.3-5.8c-4.9,0-8,4-8,9.8
			s3.2,9.8,8.2,9.8c3.9,0,6.3-2.1,7.3-6l5,0.6c-1.2,6.3-5.8,10.1-12.4,10.1C171.4,40.7,165.9,34.6,165.9,26.2L165.9,26.2z"/>
		<path d="M194.1,30c0-6.2,4.4-10.6,10.4-10.6s10.4,4.4,10.4,10.6s-4.4,10.7-10.4,10.7S194.1,36.2,194.1,30z M209.7,30
			c0-3.8-2-6.4-5.2-6.4s-5.2,2.6-5.2,6.4s2.1,6.4,5.2,6.4S209.7,33.9,209.7,30z"/>
		<path d="M218.1,19.9h4.8v0.8c0,1.1,0,2-0.4,3.6l0.5,0.1c0.8-2.7,2.2-4.5,5.4-4.5h1.5v5h-2.1c-2.9,0-4.5,1.8-4.5,5v10.3h-5.2
			C218.1,40.2,218.1,19.9,218.1,19.9z"/>
		<path d="M232.4,19.9h5.1v0.9c0,0.9-0.1,1.6-0.4,3.3l0.5,0.1c1.2-3.2,3.6-4.8,6.6-4.8c5,0,8.9,4.1,8.9,10.6s-3.9,10.7-8.9,10.7
			c-3,0-5.2-1.6-6.5-4.8l-0.4,0.2c0.2,1.6,0.3,2.4,0.3,3.2v9.1h-5.2V19.9L232.4,19.9z M247.9,30c0-4-2.2-6.4-5.2-6.4
			s-5.2,2.4-5.2,6.4s2.2,6.4,5.2,6.4S247.9,34,247.9,30z"/>
	</g>
	<g>
		<polygon points="20.8,0 0.1,12 0.1,12 0.1,40.7 7.8,45.2 7.8,16.5 20.8,9 		"/>
		<polygon points="29.1,0 29.1,22.9 20.8,22.9 20.8,14.3 13,18.8 13,48.1 20.8,52.6 20.8,29.8 29.1,29.8 29.1,38.3 36.8,33.8 
			36.8,4.5 		"/>
		<polygon points="29.1,52.6 49.8,40.7 49.8,40.7 49.8,12 42,7.5 42,36.2 29.1,43.7 		"/>
	</g>
</g>
</svg>
